# xmcd
#
# Track frame offsets:
#       150
#       24515
#       48852
#       68922
#       83280
#       111886
#       130657
#       158104
#       189372
#       216913
#       234029
#       258868
#       283467
#       306069
#
# Disc length: 4426 seconds
#
# Revision: 1
# Processed by: cddbd v1.5.1PL0 Copyright (c) Steve Scherf et al.
# Submitted via: MusiCat 1.1
#
DISCID=b111480e
DTITLE=Various Artist - The Best Techno
DYEAR=1900
DGENRE=
TTITLE0=Savas Pascadilis - Sugarland Express
TTITLE1=Carl raig - The Floor
TTITLE2=Cristian Vogel - Bite and Scratch
TTITLE3=Sapiano And The Party Crashers - Game Show
TTITLE4=Ian Poolay - Celtic Cross
TTITLE5=Daft Punk - Rollin'N'Scratch
TTITLE6=Dave Clarke - Red 2
TTITLE7=The Mover - Waves Of Life
TTITLE8=4 Hero - Mr Kirk
TTITLE9=Kicks Like a Mule - The Bouncer
TTITLE10=Beatbox - Dial M For Moguai
TTITLE11=Mr Oizo - M-seq
TTITLE12=Skunk Traxx - A Little Higher
TTITLE13=Gypsy - Funk The Fino
EXTD=\n\n
EXTT0=
EXTT1=
EXTT2=
EXTT3=
EXTT4=
EXTT5=
EXTT6=
EXTT7=
EXTT8=
EXTT9=
EXTT10=
EXTT11=
EXTT12=
EXTT13=
PLAYORDER=
